<svg class="h-14" width="144" height="56" viewBox="0 0 144 56" fill="none"><path fill-rule="evenodd" clip-rule="evenodd" d="M13.6052 41.7139C12.9131 41.5265 12.6515 41.339 12.319 40.7876C12.2154 40.6157 12.1049 40.4086 11.994 40.1733C11.7493 39.6537 11.503 38.9975 11.3261 38.2831C11.2126 37.8245 11.1275 37.3421 11.0583 36.8463C10.971 36.22 10.9091 35.5723 10.8474 34.9246C10.726 34.8898 10.7988 34.8118 11.0091 34.6233C11.3416 34.3258 12.0175 33.7521 12.3063 33.1844C12.5953 32.6165 12.4972 32.0538 11.9031 30.7747C11.3091 29.4956 10.219 27.4997 9.65752 26.1486C9.0962 24.798 9.0635 24.0922 9.25425 23.3753C9.44499 22.6585 9.85931 21.931 10.9493 20.8556C12.0395 19.7806 13.8052 18.3575 15.9853 16.8691L16.0738 16.809L16.1308 16.9603C16.7713 18.6667 16.8693 18.8597 17.2072 18.9533C17.3463 18.9917 17.526 19.0138 17.7276 19.0134C17.5633 18.8609 17.4135 18.5424 17.0949 17.7989C16.6171 16.6838 15.7592 14.6131 15.2389 12.6932C14.7837 11.0134 14.587 9.44886 14.5901 8.08512C7.02431 12.2618 1.89136 20.3833 1.89136 29.7168C1.89136 40.928 9.29673 50.3896 19.4289 53.3683C19.4611 51.9044 19.4934 50.4405 19.6812 49.044C19.806 48.1171 19.9992 47.2199 20.2198 46.3687C20.3314 45.9374 20.4502 45.5178 20.5707 45.1119C20.8953 44.0173 21.2321 43.0234 21.5697 42.039C20.1739 42.2327 18.3616 42.2538 16.8971 42.1715C15.4202 42.0889 14.2974 41.9014 13.6052 41.7139Z" fill="#FF3369"></path><path fill-rule="evenodd" clip-rule="evenodd" d="M19.3107 6.23107C20.4773 5.81479 22.7082 5.18302 25.5215 5.11228C28.3343 5.04194 31.7297 5.53264 34.933 6.79006C38.1364 8.04748 41.1477 10.0716 42.8228 11.3389C44.4982 12.6065 44.8369 13.1176 44.9578 13.417C45.079 13.7159 44.9824 13.803 44.1967 14.4879C43.4105 15.1729 41.9355 16.4556 40.8405 17.0122C39.7455 17.5683 39.0301 17.3978 38.5572 17.1565C38.0842 16.9153 37.8534 16.6028 37.1537 15.6448C36.4545 14.6871 35.2855 13.0837 34.6266 11.6995C33.9678 10.3157 33.819 9.15074 33.5139 8.63428C33.2087 8.11741 32.7471 8.24949 30.6537 9.19736C28.5607 10.1456 24.8357 11.9105 22.8361 12.8989C20.8364 13.8872 20.562 14.0995 20.1771 13.6059C19.7921 13.1123 19.2965 11.913 18.9052 10.7026C18.5136 9.49218 18.2266 8.27075 18.1341 7.55964C18.0417 6.84854 18.1442 6.64776 19.3107 6.23107Z" fill="#FF3369"></path><path fill-rule="evenodd" clip-rule="evenodd" d="M45.5879 20.6843C45.6967 21.2809 45.8676 22.4234 45.3288 23.6444C44.79 24.8655 43.5414 26.1646 42.8692 26.852C42.1962 27.5394 42.0996 27.615 42.2391 28.1102C42.3781 28.6054 42.7536 29.5206 42.5402 30.295C42.3272 31.0699 41.5256 31.7038 41.1566 32.0669C40.788 32.4296 40.851 32.5216 41.0499 32.7874C41.2483 33.0528 41.5822 33.4923 41.1566 33.9906C40.731 34.489 39.5466 35.046 38.4072 35.506C37.2677 35.9659 36.1739 36.3288 35.4924 36.6553C34.8109 36.982 34.5417 37.272 34.0134 38.3148C33.4855 39.3577 32.6985 41.1532 32.4019 42.8392C32.1048 44.525 32.2984 46.1016 32.4738 46.9287C32.6496 47.7558 32.8077 47.8335 33.6084 47.6086C34.4087 47.3836 35.8522 46.8562 36.7649 46.6792C37.6776 46.5021 38.0595 46.6754 38.3037 46.7645C38.547 46.8535 38.6525 46.8583 39.083 46.6698C39.5135 46.4813 40.2685 46.0995 40.8001 45.8984C41.3316 45.6973 41.6396 45.6767 41.9096 45.7764C42.18 45.8761 42.4129 46.0959 42.4703 46.4289C42.5277 46.7623 42.4092 47.2087 42.8098 47.0471C43.2104 46.8853 44.1291 46.1155 45.1477 44.9937C46.1667 43.8719 47.2852 42.3982 48.2011 40.0043C49.1179 37.6105 49.8317 34.2965 50.1753 31.5566C50.5189 28.8172 50.4918 26.6516 50.0176 24.504C49.5439 22.3563 48.6231 20.2263 48.1191 19.0809C47.615 17.9355 47.5273 17.7748 47.2476 18.014C46.9675 18.2533 46.4958 18.8932 46.1538 19.2886C45.8114 19.6837 45.5992 19.8345 45.5164 19.9355C45.4331 20.0365 45.4796 20.0873 45.5879 20.6843Z" fill="#FF3369"></path><path d="M15.1321 45.8778C15.1321 46.494 15.1321 47.1099 15.1321 47.726M14.4535 46.8019C14.9059 46.8019 15.3582 46.8019 15.8106 46.8019M7.13561 36.7133C7.13561 37.6941 7.13561 38.6748 7.13561 39.6554M6.05562 38.1845C6.77564 38.1845 7.49577 38.1845 8.21579 38.1845M37.8141 40.3618C37.8141 40.8523 37.8141 41.3427 37.8141 41.8334M37.2737 41.0975C37.6338 41.0975 37.994 41.0975 38.3541 41.0975M44.2851 38.211C44.2851 38.8271 44.2851 39.4433 44.2851 40.0592M43.6069 39.1352C44.0592 39.1352 44.5119 39.1352 44.9638 39.1352M46.7124 28.8845C46.7124 29.3049 46.7124 29.7253 46.7124 30.1452M46.2496 29.5151C46.558 29.5151 46.8668 29.5151 47.1752 29.5151M5.61412 25.5331C5.61412 26.0233 5.61412 26.514 5.61412 27.0047M5.07397 26.2687C5.43412 26.2687 5.79427 26.2687 6.15446 26.2687M11.1383 14.4351C11.1383 15.1073 11.1383 15.78 11.1383 16.4523M10.398 15.4435C10.8916 15.4435 11.3853 15.4435 11.8789 15.4435M22.1689 8.05188C22.1689 8.87462 22.1689 9.69736 22.1689 10.5201M21.2625 9.28598C21.8666 9.28598 22.4708 9.28598 23.075 9.28598M8.29276 31.1148C8.29276 31.6051 8.29276 32.0958 8.29276 32.5865M7.75247 31.8504C8.11278 31.8504 8.47293 31.8504 8.83308 31.8504M39.376 12.4461C39.376 12.8664 39.376 13.2868 39.376 13.7072M38.9132 13.0766C39.2216 13.0766 39.5305 13.0766 39.8389 13.0766" stroke="white" stroke-width="0.936886" stroke-miterlimit="22.9256" stroke-linecap="round"></path><path fill-rule="evenodd" clip-rule="evenodd" d="M38.5983 21.1753C37.8517 21.4456 36.6197 21.4894 34.7612 21.7707C32.903 22.0516 30.4175 22.5701 27.9648 23.5242C25.5125 24.4782 23.0923 25.8677 21.4682 27.1136C19.8439 28.3596 19.0155 29.4624 18.3669 30.5322C17.7184 31.6019 17.2496 32.6381 16.6665 33.3718C16.0832 34.1051 15.3857 34.535 14.9442 34.7502C14.5029 34.9651 14.3175 34.9651 13.6525 34.9651C12.9876 34.9651 11.843 34.9651 11.2654 34.9543C11.0532 34.9501 10.9176 34.9445 10.8472 34.9246C10.9092 35.5723 10.971 36.22 11.0583 36.8463C11.1274 37.3421 11.2125 37.8247 11.3261 38.2831C11.5031 38.9975 11.7492 39.6536 11.9939 40.1732C12.1048 40.4085 12.2152 40.6157 12.3189 40.7876C12.6514 41.3389 12.9131 41.5265 13.6051 41.7138C14.2973 41.9014 15.4201 42.0889 16.897 42.1715C18.038 42.2355 19.3903 42.237 20.5921 42.1428C20.9462 42.115 21.2874 42.0788 21.6061 42.0337C23.0069 41.8353 23.977 41.4604 25.3451 40.7932C26.713 40.1261 28.479 39.1666 30.3537 38.3781C31.751 37.7905 33.2086 37.2979 34.6326 36.8361C35.1189 36.6784 35.6015 36.5243 36.0765 36.3711C37.9407 35.7702 39.6848 35.1857 40.5619 34.6233C41.3558 34.1146 41.4407 33.624 41.1428 33.0086C41.1113 32.9436 41.0757 32.8769 41.0361 32.809C40.6222 32.0979 39.7826 31.2159 39.1561 30.1956C39.011 29.9601 38.878 29.7176 38.7559 29.4686C38.3505 28.6405 38.0744 27.7479 37.9407 26.8491C37.7947 25.8738 37.8166 24.8903 37.9867 23.9907C38.0207 23.8124 38.0599 23.637 38.1056 23.4661C38.3796 22.4323 38.8618 21.5442 39.3445 20.656C39.1909 20.8731 38.9475 21.049 38.5983 21.1753ZM31.6172 29.3725C31.3614 30.1662 30.8048 31.0135 29.9907 31.662C29.6128 31.9626 29.1795 32.2206 28.7284 32.4316C28.2081 32.6753 27.6649 32.8565 27.1572 32.9697C26.2097 33.1811 25.3868 33.1554 24.6768 33.0302C23.9667 32.9051 23.3704 32.6806 23.0265 32.5097C22.6831 32.3396 22.5927 32.223 22.6617 31.8652C22.6742 31.8006 22.6919 31.7283 22.7159 31.6481C22.825 31.2846 23.0647 30.764 23.5424 30.1085C24.1254 29.3087 25.0627 28.3085 26.1022 27.6473C26.1236 27.6338 26.1455 27.6199 26.1673 27.6064C26.9349 27.1304 27.7546 26.8364 28.5068 26.6753C28.7558 26.6221 28.9976 26.5833 29.2276 26.5571C30.171 26.4508 30.9167 26.5604 31.3096 26.6863C31.7029 26.8131 31.7433 26.9566 31.7858 27.3982C31.8282 27.8395 31.8731 28.5792 31.6172 29.3725Z" fill="#FFD27F"></path><path fill-rule="evenodd" clip-rule="evenodd" d="M30.7228 38.2475C28.9847 38.9784 27.3477 39.8678 26.0793 40.4863C24.8112 41.1048 23.9117 41.4524 22.6132 41.6362C22.3178 41.678 22.0015 41.7116 21.6732 41.7373C21.3009 42.8212 20.9286 43.9054 20.5707 45.1118C20.2127 46.3185 19.8691 47.6474 19.6813 49.044C19.4934 50.4404 19.4612 51.9043 19.429 53.3683C21.5888 54.0032 23.8724 54.3436 26.2345 54.3436C29.2628 54.3436 32.1618 53.7842 34.8364 52.7621C34.3409 52.1852 33.8453 51.6083 33.431 50.8291C33.0167 50.05 32.6832 49.0686 32.5163 47.8674C32.5078 47.8049 32.4993 47.7417 32.4916 47.6781C32.3497 46.5184 32.3554 45.173 32.4609 43.8599C32.5721 42.4746 32.7944 41.1252 33.184 39.9576C33.5741 38.7899 34.1319 37.8039 34.6893 36.818C33.3696 37.246 32.0179 37.7026 30.7228 38.2475Z" fill="#FFE3BA"></path><path fill-rule="evenodd" clip-rule="evenodd" d="M22.3869 12.9754C24.2431 11.9343 27.8066 9.94405 29.9219 8.9696C32.0371 7.99516 32.7036 8.03605 33.0735 8.18203C33.4433 8.3276 33.5161 8.57827 33.7141 9.27752C33.9126 9.97676 34.236 11.125 35.0638 12.5129C35.892 13.9007 37.2243 15.5286 38.044 16.6589C38.8638 17.7891 39.1709 18.4217 39.3359 18.9108C39.5012 19.3999 39.5242 19.745 39.3702 20.1641C39.2166 20.5841 38.8856 21.0776 37.4672 21.442C36.0488 21.8063 33.5424 22.0415 30.8342 22.7775C28.126 23.514 25.2159 24.7505 22.8715 26.4529C20.5272 28.1548 18.7485 30.3224 17.6823 31.8097C16.6164 33.2969 16.2627 34.1048 15.4745 34.5698C14.6863 35.035 13.4635 35.1578 12.6295 35.1616C11.7954 35.1656 11.3501 35.0508 11.1191 34.9653C10.8881 34.88 10.8719 34.8241 11.246 34.5032C11.6204 34.1823 12.3853 33.5966 12.2727 32.1589C12.16 30.7207 11.1696 28.4312 10.5036 26.984C9.83778 25.5369 9.49659 24.9333 9.25896 24.2533C9.02165 23.5737 8.88806 22.8176 9.84191 21.6424C10.7958 20.4671 12.8372 18.8723 14.0951 17.9216C15.3532 16.9709 15.8281 16.6642 16.1566 16.7255C16.485 16.7869 16.6669 17.2162 16.9195 17.7887C17.1721 18.3612 17.4957 19.0768 18.1489 19.2093C18.8022 19.3418 19.7853 18.8908 20.5179 18.4156C21.2505 17.94 21.7326 17.4403 21.8174 17.0645C21.902 16.6887 21.5892 16.4364 21.2589 15.9801C20.9284 15.5237 20.5804 14.8625 20.4809 14.4855C20.3815 14.1089 20.5307 14.0165 22.3869 12.9754Z" fill="#FFE3BA"></path><path fill-rule="evenodd" clip-rule="evenodd" d="M30.7227 38.2475C28.9846 38.9785 27.3476 39.8679 26.0792 40.4863C24.8111 41.1048 23.9116 41.4524 22.6131 41.6363C22.3177 41.6781 22.0014 41.7117 21.6731 41.7374C21.3008 42.8213 20.9285 43.9054 20.5706 45.1119C20.4501 45.5178 20.3314 45.9374 20.2197 46.3687C21.4425 46.3621 23.1515 46.2093 24.6817 45.6877C26.5715 45.0437 28.1883 43.8374 30.1386 42.8969C30.9721 42.4947 31.867 42.1413 32.7268 41.7778C32.844 41.1392 32.994 40.5267 33.1839 39.9576C33.574 38.7899 34.1318 37.8039 34.6892 36.8181C33.3695 37.246 32.0178 37.7027 30.7227 38.2475Z" fill="#F0C87F"></path><path fill-rule="evenodd" clip-rule="evenodd" d="M28.5794 54.2307C30.7618 54.0197 32.8604 53.5172 34.8362 52.7621C34.3406 52.1852 33.8451 51.6084 33.4308 50.8292C33.0164 50.05 32.683 49.0686 32.516 47.8674C32.5075 47.8049 32.4991 47.7417 32.4914 47.6781C32.3495 46.5185 32.3552 45.173 32.4607 43.8599C32.5718 42.4747 32.7941 41.1252 33.1838 39.9576C33.5738 38.7899 34.1316 37.8039 34.689 36.818C33.8354 37.0947 32.9687 37.3838 32.1122 37.7006C31.2521 39.615 30.3903 41.7298 29.7747 43.4692C28.653 46.6384 28.3499 48.5602 28.3499 50.9525C28.3499 52.0071 28.4089 53.1528 28.5794 54.2307Z" fill="#F0C87F"></path><path fill-rule="evenodd" clip-rule="evenodd" d="M38.8343 30.598C39.3715 31.4722 40.091 32.2279 40.4459 32.8376C40.4798 32.8961 40.5106 32.9525 40.5372 33.0085C41.0857 32.4381 41.6343 31.8677 42.0251 31.242C42.4164 30.6168 42.65 29.9364 42.6201 29.3352C42.5898 28.7341 42.2968 28.2124 42.0033 27.6902C41.7919 27.8525 41.5833 28.0067 41.3808 28.1518C40.2988 28.9288 39.3953 29.4518 38.4919 29.9748C38.5962 30.1878 38.7106 30.396 38.8343 30.598Z" fill="#70CC81"></path><path fill-rule="evenodd" clip-rule="evenodd" d="M38.492 29.9747C39.3954 29.4517 40.2988 28.9287 41.3809 28.1518C41.5834 28.0066 41.792 27.8525 42.0034 27.6901C42.9201 26.9864 43.8797 26.1338 44.5555 25.2162C45.387 24.0867 45.7888 22.8579 45.9116 21.9616C46.0345 21.0652 45.8789 20.5005 45.7229 19.9362C45.1639 20.5198 44.5353 21.0747 43.8643 21.6058C42.6404 22.5746 41.2766 23.4631 40.2479 24.0618C39.2196 24.6609 38.526 24.9704 37.8323 25.2804C37.6864 26.0512 37.6682 26.8935 37.7927 27.7298C37.9079 28.5002 38.1444 29.2649 38.492 29.9747Z" fill="#91F7A4"></path><path fill-rule="evenodd" clip-rule="evenodd" d="M38.4919 29.9747C39.3953 29.4517 40.2987 28.9287 41.3808 28.1518C41.5833 28.0066 41.7919 27.8525 42.0033 27.6901C42.92 26.9864 43.8796 26.1338 44.5555 25.2162C45.2309 24.2986 45.6226 23.3159 45.8117 22.4989C45.5247 22.9455 44.9584 23.6889 44.1848 24.3877C43.3157 25.172 42.1856 25.8999 41.0639 26.2045C39.9426 26.5092 38.8303 26.3906 37.7607 26.032L37.7332 26.0225C37.6892 26.5779 37.707 27.1552 37.7927 27.7298C37.9079 28.5002 38.1443 29.2649 38.4919 29.9747Z" fill="#83DE93"></path><path fill-rule="evenodd" clip-rule="evenodd" d="M40.2478 24.0618C41.2765 23.4632 42.6403 22.5746 43.8643 21.6059C44.5353 21.0747 45.1638 20.5198 45.7228 19.9363C46.1222 19.5196 46.486 19.0886 46.8041 18.6416C46.8526 18.5733 46.9003 18.5042 46.9472 18.4351C47.7224 17.2824 48.1893 16.0254 48.4136 14.7778C48.638 13.5302 48.619 12.2924 48.5025 11.5976C48.3857 10.9033 48.1707 10.752 47.6804 11.1441C47.1897 11.5363 46.4237 12.4719 45.298 13.5163C44.9023 13.8835 44.4621 14.2642 43.994 14.6359C43.1314 15.3212 42.4309 15.845 41.2288 16.4609C40.0271 17.0771 39.7038 17.1213 38.2729 17.4631C38.7086 18.0172 38.9689 18.3337 39.4778 19.0546C39.9867 19.7756 39.1302 21.2427 39.169 21.6623C39.2086 22.0823 39.1459 22.2111 38.996 22.4225C38.5825 23.1835 38.169 23.9445 37.9341 24.8306C37.8953 24.9774 37.8614 25.1275 37.8323 25.2804C38.5259 24.9704 39.2195 24.6609 40.2478 24.0618Z" fill="#C7FFD1"></path><path fill-rule="evenodd" clip-rule="evenodd" d="M40.248 24.0618C41.2767 23.4632 42.6405 22.5746 43.8644 21.6059C44.5354 21.0747 45.1639 20.5198 45.723 19.9363C46.1223 19.5196 46.4861 19.0886 46.8042 18.6416C46.8527 18.5733 46.9004 18.5042 46.9473 18.4351C47.7226 17.2824 48.1894 16.0254 48.4138 14.7778C48.5431 14.0581 48.5916 13.3421 48.5872 12.7311C48.552 12.7675 48.5156 12.8129 48.478 12.8694C48.151 13.3609 47.742 14.6355 46.7808 15.8778C45.8196 17.1204 44.3062 18.33 42.7484 18.896C41.191 19.4623 40.3434 19.3858 39.7306 19.383C39.1174 19.3801 39.3789 19.3834 39.2277 19.3891L39.2969 19.4869C39.9739 20.4462 39.1303 21.2427 39.1691 21.6623C39.2087 22.0822 39.1461 22.2111 38.9961 22.4225C38.5826 23.1835 38.1691 23.9445 37.9343 24.8306C37.9088 24.9263 37.8858 25.0236 37.8647 25.1221C37.9242 25.1438 37.9852 25.1643 38.0483 25.1835C38.6732 24.9034 39.326 24.5987 40.248 24.0618Z" fill="#91F7A4"></path><path fill-rule="evenodd" clip-rule="evenodd" d="M33.4822 47.5503C34.2146 47.1953 35.755 46.762 36.6321 46.6155C37.5097 46.4692 37.7231 46.6096 37.8541 46.7495C37.985 46.8896 38.0331 47.0289 38.4418 46.8486C38.8504 46.6682 39.6196 46.1681 40.2639 45.916C40.9083 45.664 41.4277 45.66 41.804 45.768C42.1799 45.876 42.4127 46.0958 42.3699 46.6104C42.327 47.125 42.0085 47.9347 41.3351 48.7039C40.6617 49.4731 39.6338 50.202 38.4915 50.8715C37.3492 51.5411 36.0925 52.1515 35.4446 52.4338C34.7966 52.716 34.757 52.6699 34.4393 52.1522C34.1216 51.6345 33.5254 50.6451 33.2227 49.9509C32.9199 49.2568 32.9106 48.858 32.8682 48.52C32.8257 48.1822 32.7497 47.9055 33.4822 47.5503Z" fill="#FFD27F"></path><path fill-rule="evenodd" clip-rule="evenodd" d="M29.9907 31.6621C30.8048 31.0135 31.3614 30.1662 31.6172 29.3725C31.8731 28.5792 31.8282 27.8395 31.7858 27.3983C31.7433 26.9567 31.7029 26.8131 31.3096 26.6864C30.9167 26.5604 30.171 26.4508 29.2275 26.5571C28.9975 26.5833 28.7558 26.6222 28.5068 26.6753C28.926 27.2548 29.232 27.9319 29.384 28.6811C29.6572 30.0231 29.388 31.3509 28.7283 32.4316C29.1794 32.2206 29.6128 31.9626 29.9907 31.6621Z" fill="white"></path><path fill-rule="evenodd" clip-rule="evenodd" d="M26.3697 30.0714C26.3697 31.4323 25.4679 32.5805 24.2361 32.9375C24.3768 32.9722 24.5241 33.0033 24.6766 33.0303C25.3866 33.1554 26.2096 33.1812 27.157 32.9698C27.6647 32.8565 28.208 32.6754 28.7282 32.4317C29.3879 31.3509 29.6571 30.0231 29.3838 28.6811C29.2319 27.9319 28.9259 27.2548 28.5067 26.6753C27.7335 26.8413 26.8883 27.1472 26.1021 27.6473C25.9194 27.7635 25.7399 27.8902 25.5653 28.0243C26.0637 28.5584 26.3697 29.2785 26.3697 30.0714Z" fill="#91F7A4"></path><path fill-rule="evenodd" clip-rule="evenodd" d="M26.8486 28.7333C27.3065 28.7333 27.678 29.1087 27.678 29.572C27.678 30.0353 27.3065 30.4111 26.8486 30.4111C26.3906 30.4111 26.0195 30.0353 26.0195 29.572C26.0195 29.1087 26.3906 28.7333 26.8486 28.7333Z" fill="white"></path><path fill-rule="evenodd" clip-rule="evenodd" d="M24.2362 32.9374C25.468 32.5804 26.3698 31.4322 26.3698 30.0713C26.3698 29.2784 26.0638 28.5583 25.5654 28.0242C24.7443 28.654 24.023 29.4493 23.5424 30.1085C22.9596 30.9083 22.7308 31.5074 22.6617 31.8652C22.5927 32.223 22.683 32.3395 23.0264 32.5096C23.2964 32.6438 23.7221 32.811 24.2362 32.9374Z" fill="#111726"></path><path fill-rule="evenodd" clip-rule="evenodd" d="M19.4675 19.0729C20.0138 18.9228 20.5305 18.6276 20.9274 18.3229C21.3241 18.0187 21.6015 17.7055 21.7372 17.5194C21.8733 17.333 21.8677 17.2737 21.4309 16.4681C21.2187 16.0763 20.9047 15.5088 20.5641 14.8529C20.204 14.1593 19.8141 13.3669 19.4838 12.5809C18.9473 11.3035 18.5682 10.0428 18.283 8.7919C18.2269 8.54532 18.1744 8.29916 18.125 8.0534C17.8251 6.56044 17.642 5.08016 17.5346 4.03906C17.4269 2.99795 17.3953 2.39603 17.3142 2.04967C17.233 1.70332 17.1028 1.61254 16.7603 1.91228C16.4178 2.21202 15.8631 2.90268 15.4264 3.85463C14.99 4.807 14.6715 6.02148 14.6036 7.5128C14.5627 8.41406 14.6131 9.41632 14.7743 10.4918C14.8799 11.1963 15.0328 11.9328 15.2388 12.693C15.7591 14.6128 16.6171 16.6836 17.095 17.7987C17.4042 18.52 17.5543 18.8414 17.713 18.9993C17.7995 19.0852 17.8887 19.1228 18.0078 19.1498C18.3448 19.2271 18.9212 19.2226 19.4675 19.0729Z" fill="white"></path><path fill-rule="evenodd" clip-rule="evenodd" d="M20.0758 18.8448C20.3911 18.696 20.6821 18.5112 20.9275 18.3231C21.3241 18.0188 21.6015 17.7056 21.7373 17.5195C21.8734 17.3331 21.8677 17.2738 21.431 16.4682C21.2188 16.0765 20.9048 15.5089 20.5642 14.853C20.204 14.1595 19.8142 13.367 19.4838 12.5811C18.9473 11.3036 18.5682 10.0429 18.2831 8.79203C18.227 8.54545 18.1744 8.29929 18.125 8.05353C17.8252 6.56057 17.642 5.08029 17.5347 4.03919C17.4269 2.99809 17.3954 2.39616 17.3142 2.04981C17.2648 1.8388 17.1971 1.72268 17.0744 1.73167C16.8476 2.60348 16.6342 3.63886 16.5491 4.74252C16.3994 6.68815 16.6492 8.84437 17.132 10.8276C17.6149 12.8113 18.3308 14.622 19.0552 16.3991C19.403 17.2525 19.7528 18.0982 20.0758 18.8448Z" fill="#DEDEDE"></path><path d="M23.5425 30.1094C22.9596 30.9093 22.731 31.5083 22.662 31.8661C22.5928 32.2239 22.6833 32.3405 23.0267 32.5106C23.3705 32.6815 23.9668 32.906 24.6769 33.0311C25.3869 33.1563 26.2098 33.182 27.1573 32.9706M23.5425 30.1094C24.1255 29.3096 25.0628 28.3094 26.1023 27.6481M23.5425 30.1094C22.9597 30.9093 22.7309 31.5083 22.6618 31.8661C22.5928 32.2239 22.6831 32.3404 23.0265 32.5106C23.2965 32.6447 23.7222 32.8119 24.2363 32.9383C25.468 32.5813 26.3698 31.4331 26.3698 30.0722C26.3698 29.2793 26.0639 28.5592 25.5655 28.0251C24.7444 28.6549 24.0232 29.4502 23.5425 30.1094ZM26.1023 27.6481C26.8885 27.148 27.7337 26.8422 28.5069 26.6762C28.9261 27.2552 29.2317 27.9328 29.3845 28.6819C29.6573 30.024 29.3881 31.3517 28.7288 32.4325C28.2086 32.6758 27.665 32.8573 27.1573 32.9706M26.1023 27.6481C27.1419 26.9869 28.2838 26.6647 29.2276 26.558C30.1715 26.4517 30.9168 26.5612 31.3097 26.6876C31.703 26.814 31.7434 26.9575 31.7859 27.3991C31.8283 27.8403 31.8732 28.5801 31.6173 29.3734C31.3614 30.1671 30.8049 31.0148 29.9908 31.6629C29.1767 32.3106 28.1047 32.7592 27.1573 32.9706M20.6799 13.9249C21.5165 13.4391 22.3559 12.9697 23.1741 12.5305C25.5885 11.235 27.8234 10.1984 29.3383 9.51308C30.8537 8.82814 31.6492 8.49488 32.2854 8.38161C32.9216 8.26874 33.3982 8.37629 33.589 8.82937C33.7798 9.28286 33.6848 10.0827 33.8934 10.8682C34.1019 11.6538 34.6145 12.4258 35.4698 13.5397C36.3255 14.6536 37.5248 16.1089 38.315 17.2281C39.1052 18.3473 39.4868 19.1304 39.5466 19.7699C39.6064 20.4099 39.3449 20.9059 38.5983 21.1762C37.8518 21.4465 36.6197 21.4903 34.7612 21.7716C32.9026 22.0525 30.4176 22.571 27.9648 23.525C25.5125 24.479 23.0924 25.8685 21.4682 27.1145C19.844 28.3605 19.0155 29.4633 18.3669 30.5331C17.7184 31.6028 17.2497 32.639 16.6665 33.3727C16.0833 34.106 15.3857 34.5359 14.9443 34.751C14.5029 34.966 14.3176 34.966 13.6525 34.966C12.9876 34.966 11.8432 34.966 11.2655 34.9552C10.6877 34.9441 10.6767 34.9219 11.009 34.6242C11.3416 34.3266 12.0175 33.753 12.3063 33.1853C12.5952 32.6173 12.4972 32.0546 11.903 30.7755C11.309 29.4964 10.2189 27.5005 9.65749 26.1495C9.09617 24.7988 9.06347 24.093 9.25422 23.3762C9.44496 22.6594 9.85928 21.9319 10.9492 20.8564C12.0395 19.7814 13.8052 18.3584 15.9852 16.8699C16.0148 16.8499 16.0444 16.8298 16.0738 16.8098M10.8472 34.9254C10.9582 36.0859 11.0691 37.2462 11.3261 38.284C11.5831 39.322 11.9866 40.2372 12.3189 40.7884C12.6515 41.3398 12.9131 41.5274 13.6051 41.7147C14.2973 41.9023 15.4201 42.0898 16.897 42.1724C18.3741 42.2553 20.2054 42.2332 21.6061 42.0345C23.0069 41.8361 23.977 41.4612 25.3452 40.7941C26.713 40.127 28.479 39.1675 30.3537 38.379C32.2284 37.5906 34.2127 36.973 36.0765 36.372C37.9407 35.7711 39.6848 35.1866 40.562 34.6242C41.4395 34.0619 41.4504 33.5214 41.0361 32.8099C40.6222 32.0988 39.7827 31.2168 39.1561 30.1965C38.5292 29.1767 38.1149 28.0186 37.9407 26.8499C37.7661 25.6808 37.8315 24.5011 38.1056 23.467C38.3796 22.4332 38.8619 21.5451 39.3445 20.6569M34.6893 36.8189C34.1319 37.8048 33.5741 38.7908 33.184 39.9585C32.7944 41.1261 32.572 42.4756 32.4609 43.8608C32.3497 45.246 32.3497 46.6671 32.5163 47.8683C32.6832 49.0695 33.0167 50.0509 33.431 50.8301C33.8453 51.6093 34.3409 52.1861 34.8364 52.763M21.6732 41.7383C21.3009 42.8222 20.9286 43.9063 20.5707 45.1128C20.2127 46.3194 19.8691 47.6484 19.6813 49.0449C19.4934 50.4413 19.4612 51.9052 19.429 53.3692M32.4916 47.679C33.5761 47.3861 34.6602 47.0928 35.4953 46.839C36.3308 46.5852 36.9169 46.3705 37.2956 46.3296C37.6748 46.2887 37.8465 46.4216 37.9375 46.7513C38.0284 47.081 38.0385 47.6075 37.9601 48.0803C37.8821 48.5531 37.7152 48.9722 37.5486 49.3914M38.081 47.1691C39.3029 46.6166 40.5252 46.0643 41.3029 45.8135C42.0806 45.5627 42.4141 45.6138 42.5604 45.8133C42.7071 46.0127 42.6667 46.3601 42.5434 46.8283C42.4209 47.2966 42.2152 47.8856 42.0099 48.4745M38.4985 17.4931C39.3995 17.2845 40.3009 17.076 41.4941 16.3952C42.6873 15.7143 44.1728 14.5616 45.2981 13.5172C46.4238 12.4728 47.1898 11.5372 47.6805 11.1451C48.1708 10.7529 48.3858 10.9042 48.5026 11.5986C48.619 12.2933 48.638 13.5311 48.4137 14.7787C48.1894 16.0263 47.7225 17.2833 46.9472 18.4361C46.1716 19.5892 45.0879 20.6381 43.8643 21.6068C42.6404 22.5755 41.2766 23.4641 40.2479 24.0628C39.2196 24.6618 38.526 24.9714 37.8324 25.2813M45.7229 19.9372C45.8789 20.5015 46.0346 21.0662 45.9117 21.9626C45.7888 22.8589 45.387 24.0877 44.5556 25.2171C43.7245 26.3462 42.463 27.3766 41.4472 28.1147C40.431 28.8528 39.6602 29.2989 38.889 29.7451M42.0034 27.6911C42.2969 28.2133 42.5899 28.735 42.6202 29.3361C42.6501 29.9372 42.4165 30.6177 42.0883 31.1771C41.7601 31.7369 41.3373 32.1757 40.9145 32.6144M11.994 40.1741C13.0972 40.1225 14.2003 40.0711 15.4059 40.3099C16.6116 40.549 17.9196 41.0783 19.3223 41.3262C20.7249 41.5743 22.2222 41.5409 23.5304 41.2603C24.8388 40.9798 25.9584 40.4519 26.7357 39.7021C27.5134 38.9523 27.9487 37.9808 28.384 37.0091M14.8018 37.9072C14.9436 37.6866 15.0853 37.466 15.1915 37.2317C15.2978 36.9973 15.3687 36.7491 15.4396 36.501M12.0512 37.7538C11.8115 37.5909 11.5716 37.4278 11.406 37.2767C11.2407 37.1256 11.1495 36.9863 11.0583 36.8472M14.5901 8.08591C7.02431 12.2626 1.89136 20.3841 1.89136 29.7176C1.89136 43.3187 12.7903 54.3445 26.2345 54.3445C39.6788 54.3445 50.5779 43.3187 50.5779 29.7176C50.5779 25.3189 49.4372 21.1888 47.4396 17.6145M44.8854 13.8905C40.4201 8.51078 33.722 5.091 26.2345 5.091C23.293 5.091 20.4734 5.6185 17.8632 6.586M18.0079 19.1508C18.3448 19.2281 18.9213 19.2236 19.4676 19.074C20.0139 18.9239 20.5305 18.6287 20.9273 18.324C21.3241 18.0198 21.6015 17.7065 21.7373 17.5201C21.8734 17.334 21.8677 17.2747 21.431 16.4692C20.9942 15.6636 20.1263 14.1109 19.4838 12.582C18.8415 11.0526 18.425 9.54742 18.125 8.05447C17.8252 6.56151 17.642 5.08123 17.5347 4.04013C17.4271 2.99902 17.3954 2.3971 17.3142 2.05075C17.2331 1.70439 17.1028 1.61361 16.7603 1.91335C16.4177 2.21309 15.8632 2.90375 15.4264 3.85571C14.99 4.80807 14.6716 6.02256 14.6037 7.51388C14.5358 9.0052 14.7186 10.7738 15.2389 12.694C15.7593 14.6139 16.6171 16.6847 17.0951 17.7998C17.573 18.9149 17.6708 19.074 18.0079 19.1508Z" stroke="#111726" stroke-width="1.24919" stroke-miterlimit="22.9256" stroke-linecap="round"></path><path d="M68.0886 18.7238C68.0886 19.4571 67.9209 20.1248 67.5855 20.7268C67.2501 21.3178 66.7525 21.7885 66.0925 22.1387C65.4433 22.489 64.6535 22.6641 63.7231 22.6641H62.2949V26.3581H58.6921V14.7342H63.7231C65.1296 14.7342 66.2061 15.0954 66.9526 15.8178C67.71 16.5402 68.0886 17.5089 68.0886 18.7238ZM63.3174 19.791C64.0639 19.791 64.4371 19.4352 64.4371 18.7238C64.4371 18.0124 64.0639 17.6566 63.3174 17.6566H62.2949V19.791H63.3174Z" fill="#FF3369"></path><path d="M73.4955 26.4731C72.5759 26.4731 71.7482 26.2815 71.0125 25.8984C70.2768 25.5153 69.698 24.9681 69.276 24.2566C68.8649 23.5342 68.6593 22.6915 68.6593 21.7283C68.6593 20.7651 68.8649 19.9278 69.276 19.2163C69.698 18.4939 70.2768 17.9412 71.0125 17.5581C71.7482 17.175 72.5759 16.9835 73.4955 16.9835C74.4151 16.9835 75.2428 17.175 75.9785 17.5581C76.7142 17.9412 77.2876 18.4939 77.6988 19.2163C78.1207 19.9278 78.3317 20.7651 78.3317 21.7283C78.3317 22.6915 78.1207 23.5342 77.6988 24.2566C77.2876 24.9681 76.7142 25.5153 75.9785 25.8984C75.2428 26.2815 74.4151 26.4731 73.4955 26.4731ZM73.4955 23.3208C73.8309 23.3208 74.1122 23.1895 74.3394 22.9268C74.5666 22.6532 74.6802 22.2536 74.6802 21.7283C74.6802 21.2029 74.5666 20.8089 74.3394 20.5462C74.1122 20.2726 73.8309 20.1357 73.4955 20.1357C73.1601 20.1357 72.8788 20.2726 72.6516 20.5462C72.4244 20.8089 72.3108 21.2029 72.3108 21.7283C72.3108 22.2536 72.419 22.6532 72.6354 22.9268C72.8626 23.1895 73.1493 23.3208 73.4955 23.3208Z" fill="#FF3369"></path><path d="M82.9811 14.2089V26.3581H79.3783V14.2089H82.9811Z" fill="#FF3369"></path><path d="M94.8609 17.0984L89.0023 30.791H85.0587L87.3632 25.8984L83.5494 17.0984H87.5579L89.2782 21.7939L90.8848 17.0984H94.8609Z" fill="#FF3369"></path><path d="M94.9341 21.7283C94.9341 20.7651 95.1288 19.9278 95.5183 19.2163C95.9186 18.4939 96.4704 17.9412 97.1736 17.5581C97.8877 17.175 98.6991 16.9835 99.608 16.9835C100.798 16.9835 101.799 17.3228 102.61 18.0014C103.433 18.68 103.952 19.6213 104.168 20.8253H100.354C100.214 20.3437 99.938 20.1029 99.5268 20.1029C99.2347 20.1029 99.0021 20.2397 98.829 20.5134C98.6667 20.787 98.5855 21.192 98.5855 21.7283C98.5855 22.2646 98.6667 22.6696 98.829 22.9432C99.0021 23.2168 99.2347 23.3537 99.5268 23.3537C99.938 23.3537 100.214 23.1129 100.354 22.6313H104.168C103.952 23.8352 103.433 24.7765 102.61 25.4551C101.799 26.1337 100.798 26.4731 99.608 26.4731C98.6991 26.4731 97.8877 26.2815 97.1736 25.8984C96.4704 25.5153 95.9186 24.9681 95.5183 24.2566C95.1288 23.5342 94.9341 22.6915 94.9341 21.7283Z" fill="#FF3369"></path><path d="M111.636 17.0328C112.685 17.0328 113.502 17.3885 114.086 18.0999C114.681 18.8114 114.979 19.7745 114.979 20.9895V26.3581H111.392V21.4492C111.392 21.0114 111.273 20.6666 111.035 20.4148C110.808 20.1522 110.5 20.0208 110.11 20.0208C109.71 20.0208 109.396 20.1522 109.169 20.4148C108.942 20.6666 108.828 21.0114 108.828 21.4492V26.3581H105.225V14.2089H108.828V18.5104C109.109 18.0726 109.483 17.7168 109.948 17.4432C110.424 17.1696 110.986 17.0328 111.636 17.0328Z" fill="#FF3369"></path><path d="M115.969 21.7283C115.969 20.7541 116.131 19.9114 116.456 19.1999C116.791 18.4775 117.246 17.9303 117.819 17.5581C118.392 17.175 119.036 16.9835 119.75 16.9835C120.345 16.9835 120.859 17.1094 121.292 17.3611C121.725 17.6019 122.055 17.9357 122.282 18.3626V17.0984H125.869V26.3581H122.282V25.0939C122.055 25.5208 121.725 25.8601 121.292 26.1119C120.859 26.3527 120.345 26.4731 119.75 26.4731C119.036 26.4731 118.392 26.287 117.819 25.9148C117.246 25.5318 116.791 24.9845 116.456 24.2731C116.131 23.5507 115.969 22.7024 115.969 21.7283ZM122.282 21.7283C122.282 21.2357 122.158 20.8527 121.909 20.579C121.66 20.3054 121.341 20.1686 120.951 20.1686C120.562 20.1686 120.243 20.3054 119.994 20.579C119.745 20.8527 119.62 21.2357 119.62 21.7283C119.62 22.2208 119.745 22.6039 119.994 22.8775C120.243 23.1512 120.562 23.288 120.951 23.288C121.341 23.288 121.66 23.1512 121.909 22.8775C122.158 22.6039 122.282 22.2208 122.282 21.7283Z" fill="#FF3369"></path><path d="M129.219 16.3596C128.591 16.3596 128.088 16.19 127.709 15.8507C127.331 15.5114 127.141 15.0845 127.141 14.5701C127.141 14.0447 127.331 13.6124 127.709 13.2731C128.088 12.9228 128.591 12.7477 129.219 12.7477C129.835 12.7477 130.333 12.9228 130.712 13.2731C131.09 13.6124 131.28 14.0447 131.28 14.5701C131.28 15.0845 131.09 15.5114 130.712 15.8507C130.333 16.19 129.835 16.3596 129.219 16.3596ZM131.004 17.0984V26.3581H127.401V17.0984H131.004Z" fill="#FF3369"></path><path d="M138.956 17.0328C140.006 17.0328 140.823 17.3885 141.407 18.0999C142.002 18.8114 142.299 19.7745 142.299 20.9895V26.3581H138.713V21.4492C138.713 21.0114 138.594 20.6666 138.356 20.4148C138.129 20.1522 137.82 20.0208 137.431 20.0208C137.03 20.0208 136.717 20.1522 136.49 20.4148C136.262 20.6666 136.149 21.0114 136.149 21.4492V26.3581H132.546V17.0984H136.149V18.5104C136.43 18.0726 136.803 17.7168 137.269 17.4432C137.745 17.1696 138.307 17.0328 138.956 17.0328Z" fill="#FF3369"></path><path d="M72.5029 32.7939V44.4178H68.9163V38.6223L67.1474 44.4178H64.0639L62.2949 38.6223V44.4178H58.6921V32.7939H63.1064L65.6381 39.7716L68.1049 32.7939H72.5029Z" fill="#111726"></path><path d="M79.127 44.5328C78.2074 44.5328 77.3797 44.3412 76.644 43.9581C75.9083 43.575 75.3295 43.0278 74.9075 42.3163C74.4964 41.5939 74.2908 40.7512 74.2908 39.788C74.2908 38.8248 74.4964 37.9875 74.9075 37.276C75.3295 36.5536 75.9083 36.0009 76.644 35.6178C77.3797 35.2347 78.2074 35.0432 79.127 35.0432C80.0467 35.0432 80.8743 35.2347 81.6101 35.6178C82.3458 36.0009 82.9192 36.5536 83.3303 37.276C83.7523 37.9875 83.9632 38.8248 83.9632 39.788C83.9632 40.7512 83.7523 41.5939 83.3303 42.3163C82.9192 43.0278 82.3458 43.575 81.6101 43.9581C80.8743 44.3412 80.0467 44.5328 79.127 44.5328ZM79.127 41.3805C79.4624 41.3805 79.7437 41.2492 79.9709 40.9865C80.1981 40.7129 80.3117 40.3133 80.3117 39.788C80.3117 39.2626 80.1981 38.8686 79.9709 38.6059C79.7437 38.3323 79.4624 38.1954 79.127 38.1954C78.7916 38.1954 78.5103 38.3323 78.2831 38.6059C78.0559 38.8686 77.9423 39.2626 77.9423 39.788C77.9423 40.3133 78.0505 40.7129 78.2669 40.9865C78.4941 41.2492 78.7808 41.3805 79.127 41.3805Z" fill="#111726"></path><path d="M92.1546 35.0925C93.2041 35.0925 94.0209 35.4482 94.6052 36.1596C95.2002 36.8711 95.4978 37.8342 95.4978 39.0492V44.4178H91.9112V39.5089C91.9112 39.0711 91.7922 38.7263 91.5541 38.4745C91.3269 38.2119 91.0186 38.0805 90.6291 38.0805C90.2288 38.0805 89.915 38.2119 89.6878 38.4745C89.4606 38.7263 89.347 39.0711 89.347 39.5089V44.4178H85.7442V35.1581H89.347V36.5701C89.6283 36.1323 90.0016 35.7765 90.4668 35.5029C90.9429 35.2293 91.5055 35.0925 92.1546 35.0925Z" fill="#111726"></path><path d="M101.783 44.5328C100.917 44.5328 100.149 44.3905 99.4781 44.1059C98.8182 43.8213 98.2934 43.4273 97.9039 42.9238C97.5145 42.4203 97.2927 41.8512 97.2386 41.2163H100.695C100.739 41.49 100.852 41.6925 101.036 41.8238C101.231 41.9551 101.474 42.0208 101.766 42.0208C101.95 42.0208 102.096 41.9825 102.205 41.9059C102.313 41.8183 102.367 41.7143 102.367 41.5939C102.367 41.386 102.253 41.2382 102.026 41.1507C101.799 41.0631 101.415 40.9646 100.874 40.8551C100.214 40.7238 99.6675 40.5815 99.2347 40.4283C98.8128 40.275 98.4395 40.0124 98.1149 39.6402C97.8012 39.2681 97.6443 38.7536 97.6443 38.0969C97.6443 37.5278 97.7903 37.0133 98.0825 36.5536C98.3854 36.083 98.829 35.7163 99.4132 35.4536C99.9975 35.18 100.706 35.0432 101.539 35.0432C102.773 35.0432 103.736 35.3497 104.428 35.9626C105.131 36.5755 105.553 37.3745 105.694 38.3596H102.497C102.443 38.1079 102.329 37.9163 102.156 37.785C101.983 37.6427 101.75 37.5716 101.458 37.5716C101.274 37.5716 101.133 37.6099 101.036 37.6865C100.939 37.7522 100.89 37.8561 100.89 37.9984C100.89 38.1845 101.004 38.3268 101.231 38.4253C101.458 38.5129 101.82 38.6059 102.318 38.7044C102.978 38.8357 103.535 38.9835 103.99 39.1477C104.444 39.3119 104.839 39.5964 105.174 40.0014C105.51 40.3954 105.678 40.9427 105.678 41.6432C105.678 42.1905 105.521 42.683 105.207 43.1208C104.893 43.5586 104.439 43.9034 103.844 44.1551C103.259 44.4069 102.572 44.5328 101.783 44.5328Z" fill="#111726"></path><path d="M113.453 41.3148V44.4178H112.09C109.58 44.4178 108.325 43.1536 108.325 40.6253V38.1954H107.188V35.1581H108.325V32.9253H111.927V35.1581H113.42V38.1954H111.927V40.691C111.927 40.9099 111.976 41.0686 112.073 41.1671C112.182 41.2656 112.355 41.3148 112.593 41.3148H113.453Z" fill="#111726"></path><path d="M124.335 39.7059C124.335 39.9576 124.319 40.1984 124.286 40.4283H118.493C118.547 41.2273 118.877 41.6268 119.483 41.6268C119.872 41.6268 120.153 41.4462 120.326 41.085H124.14C124.01 41.7417 123.735 42.3328 123.313 42.8581C122.901 43.3726 122.377 43.783 121.738 44.0895C121.111 44.385 120.418 44.5328 119.661 44.5328C118.752 44.5328 117.941 44.3412 117.227 43.9581C116.524 43.575 115.972 43.0278 115.571 42.3163C115.182 41.5939 114.987 40.7512 114.987 39.788C114.987 38.8248 115.182 37.9875 115.571 37.276C115.972 36.5536 116.524 36.0009 117.227 35.6178C117.941 35.2347 118.752 35.0432 119.661 35.0432C120.57 35.0432 121.376 35.2347 122.079 35.6178C122.793 35.99 123.345 36.5263 123.735 37.2268C124.135 37.9273 124.335 38.7536 124.335 39.7059ZM120.684 38.8357C120.684 38.5293 120.586 38.2994 120.391 38.1462C120.197 37.982 119.953 37.8999 119.661 37.8999C119.023 37.8999 118.65 38.2119 118.541 38.8357H120.684Z" fill="#111726"></path><path d="M129.726 36.8656C130.094 36.3293 130.543 35.9024 131.073 35.585C131.604 35.2566 132.155 35.0925 132.729 35.0925V38.9835H131.706C131.025 38.9835 130.522 39.1039 130.197 39.3447C129.883 39.5855 129.726 40.0124 129.726 40.6253V44.4178H126.124V35.1581H129.726V36.8656Z" fill="#111726"></path><path d="M138.422 44.5328C137.556 44.5328 136.788 44.3905 136.117 44.1059C135.457 43.8213 134.933 43.4273 134.543 42.9238C134.154 42.4203 133.932 41.8512 133.878 41.2163H137.334C137.378 41.49 137.491 41.6925 137.675 41.8238C137.87 41.9551 138.113 42.0208 138.406 42.0208C138.589 42.0208 138.736 41.9825 138.844 41.9059C138.952 41.8183 139.006 41.7143 139.006 41.5939C139.006 41.386 138.892 41.2382 138.665 41.1507C138.438 41.0631 138.054 40.9646 137.513 40.8551C136.853 40.7238 136.307 40.5815 135.874 40.4283C135.452 40.275 135.079 40.0124 134.754 39.6402C134.44 39.2681 134.283 38.7536 134.283 38.0969C134.283 37.5278 134.429 37.0133 134.722 36.5536C135.025 36.083 135.468 35.7163 136.052 35.4536C136.637 35.18 137.345 35.0432 138.178 35.0432C139.412 35.0432 140.375 35.3497 141.067 35.9626C141.77 36.5755 142.192 37.3745 142.333 38.3596H139.136C139.082 38.1079 138.968 37.9163 138.795 37.785C138.622 37.6427 138.389 37.5716 138.097 37.5716C137.913 37.5716 137.773 37.6099 137.675 37.6865C137.578 37.7522 137.529 37.8561 137.529 37.9984C137.529 38.1845 137.643 38.3268 137.87 38.4253C138.097 38.5129 138.46 38.6059 138.957 38.7044C139.617 38.8357 140.174 38.9835 140.629 39.1477C141.083 39.3119 141.478 39.5964 141.814 40.0014C142.149 40.3954 142.317 40.9427 142.317 41.6432C142.317 42.1905 142.16 42.683 141.846 43.1208C141.532 43.5586 141.078 43.9034 140.483 44.1551C139.899 44.4069 139.212 44.5328 138.422 44.5328Z" fill="#111726"></path></svg>