<?xml version="1.0" encoding="UTF-8" standalone="no"?>
<!DOCTYPE svg PUBLIC "-//W3C//DTD SVG 1.1//EN" "http://www.w3.org/Graphics/SVG/1.1/DTD/svg11.dtd">
<svg width="100%" height="100%" viewBox="0 0 512 512" version="1.1" xmlns="http://www.w3.org/2000/svg" xmlns:xlink="http://www.w3.org/1999/xlink" xml:space="preserve" xmlns:serif="http://www.serif.com/" style="fill-rule:evenodd;clip-rule:evenodd;stroke-linejoin:round;stroke-miterlimit:2;">
    <g id="logo" transform="matrix(1.59623,0,0,1.59623,-152.954,-152.555)">
        <path d="M372.4,168.7C372.4,168.7 339.1,142.6 299.7,139.6L296.2,146.7C331.8,155.4 348.1,167.9 365.2,183.2C335.8,168.2 306.7,154.1 256.1,154.1C205.5,154.1 176.4,168.2 147,183.2C164.1,167.9 183.5,154 216,146.7L212.5,139.6C171.2,143.5 139.8,168.7 139.8,168.7C139.8,168.7 102.6,222.7 96.2,328.7C133.7,372 190.7,372.3 190.7,372.3L202.6,356.4C182.4,349.4 159.5,336.8 139.8,314.1C163.3,331.9 198.9,350.5 256.2,350.5C313.5,350.5 349,332 372.6,314.1C352.9,336.8 330,349.4 309.8,356.4L321.7,372.3C321.7,372.3 378.7,372 416.2,328.7C409.6,222.7 372.4,168.7 372.4,168.7ZM208.7,299.6C194.6,299.6 183.2,286.6 183.2,270.5C183.2,254.4 194.6,241.4 208.7,241.4C222.8,241.4 234.2,254.4 234.2,270.5C234.2,286.6 222.8,299.6 208.7,299.6ZM303.3,299.6C289.2,299.6 277.8,286.6 277.8,270.5C277.8,254.4 289.2,241.4 303.3,241.4C317.4,241.4 328.8,254.4 328.8,270.5C328.8,286.6 317.3,299.6 303.3,299.6Z" style="fill:white;fill-rule:nonzero;"/>
    </g>
</svg>
