<svg width="160" height="161" viewBox="0 0 160 161" fill="none" xmlns="http://www.w3.org/2000/svg">
<g clip-path="url(#clip0_2309_29046)">
<path d="M158.535 69.0578C159 71.2254 159.614 72.923 159.684 74.6466C159.842 78.6249 159.894 82.6206 159.684 86.5989C159.473 90.5773 157.519 94.0245 154.941 97.0453C148.226 104.958 139.162 109.233 129.711 112.715C119.313 116.436 108.46 118.758 97.4417 119.618C89.7794 120.386 82.0761 120.677 74.3772 120.489C60.4472 119.975 46.6399 118.147 33.3149 113.803C24.9166 111.069 16.8339 107.596 9.93471 101.964C3.79816 96.9495 -0.585089 90.9342 0.0636316 82.4814C0.350004 78.6859 0.671527 74.8933 1.02803 71.1036C1.19923 70.5226 1.44045 69.9643 1.74673 69.4408C2.84254 71.0252 3.71052 72.4007 4.69236 73.6977C8.53209 78.799 13.7744 82.2115 19.3148 85.1365C29.7557 90.6643 41.0294 93.6154 52.6275 95.6437C64.7515 97.6198 77.0572 98.2707 89.3241 97.585C101.004 97.1216 112.579 95.2001 123.776 91.8656C131.964 89.3933 139.819 86.2594 146.885 81.4193C151.145 78.4769 154.976 75.0558 157.405 70.3462C157.739 69.8816 158.118 69.4501 158.535 69.0578Z" fill="white"/>
<path d="M158.633 109.303C159.134 111.367 159.485 113.465 159.685 115.579C159.781 119.845 160.123 124.206 159.387 128.35C158.186 135.149 153.39 139.719 147.99 143.602C139.101 149.948 129.028 153.726 118.474 156.094C111.337 157.723 104.101 158.886 96.8115 159.576C88.66 160.436 80.4561 160.704 72.2653 160.377C63.3235 159.889 54.4167 158.418 45.5625 156.982C37.0698 155.501 28.8357 152.816 21.1129 149.008C14.2224 145.726 7.96311 141.495 3.52726 135.149C1.11275 131.924 -0.123984 127.979 0.0206671 123.962C0.204763 120.298 0.257405 116.615 0.502867 112.95C0.721274 111.744 1.0619 110.563 1.5197 109.425C3.1941 111.653 4.49153 113.716 6.11333 115.518C11.5836 121.455 18.4741 125.312 25.8467 128.367C37.9006 133.355 50.5508 135.932 63.4726 137.16C69.8283 137.828 76.2198 138.101 82.6098 137.978C100.485 137.456 118.053 135.079 134.7 128.08C141.179 125.364 147.263 121.986 152.347 117.085C154.609 114.935 156.292 112.254 158.633 109.303Z" fill="white"/>
<path fill-rule="evenodd" clip-rule="evenodd" d="M80.1739 0.511846C96.6549 0.511846 112.776 2.64465 128.39 7.8678C136.279 10.4794 143.81 13.9615 150.262 19.324C154.645 22.954 158.836 27.1587 159.353 32.9216C159.404 33.491 159.458 34.0622 159.512 34.6346L159.513 34.6403L159.514 34.6463C160.23 42.2004 160.966 49.9651 155.338 56.565C151.045 61.5078 145.764 65.5099 139.83 68.3171C128.764 73.6667 116.867 77.1192 104.641 78.5284C98.1014 79.3119 94.3881 79.7386 86.1269 80.3522C74.4061 81.2227 61.6065 79.7559 50.0961 77.7885C37.9984 75.7079 26.3214 72.1823 15.714 65.8362C10.6382 62.798 5.99182 59.2115 2.87095 54.0318C1.09271 51.2865 0.121236 48.1028 0.0657141 44.8391C0.0657141 43.9721 0.0526127 43.1014 0.0394957 42.2296C-0.00415175 39.3288 -0.0479715 36.4166 0.390177 33.5918C1.56489 26.1227 6.68445 21.2652 12.5931 17.1476C22.7359 10.0964 34.2462 6.30088 46.23 3.97658C52.5876 2.73806 59.0574 2.05675 65.5151 1.37672C66.0474 1.32066 66.5797 1.26461 67.1118 1.20826C70.1007 0.890466 73.1063 0.783309 76.1084 0.676275C77.4649 0.627913 78.8207 0.579576 80.1739 0.511846ZM105.185 34.982C105.269 35.0464 105.338 35.115 105.391 35.1867C105.994 35.8082 105.803 36.3367 104.201 36.8503C101.249 37.5983 98.1403 38.1885 94.9286 38.6106L91.9448 39.0758C88.9991 39.5336 85.9695 40.0286 83.0849 40.6203C80.458 41.1668 77.8896 41.8007 75.6131 42.3627L75.613 42.3627C74.6027 42.612 73.65 42.8472 72.7751 43.0543C70.3729 43.6894 67.7577 44.1103 65.0522 44.2973L62.9918 44.4015C60.4508 44.4839 57.9015 44.4839 55.3605 44.4015C53.0733 44.3409 50.8036 44.1713 48.584 43.8953C48.0074 43.8363 47.4699 43.7084 47.0196 43.5232C46.5616 43.3407 46.2003 43.1071 45.9664 42.8421C45.7604 42.6672 45.5315 42.4514 45.3102 42.2132C44.7421 41.5779 44.2926 40.919 43.9671 40.2444C43.742 39.753 43.5714 39.2561 43.4558 38.7558C43.3349 38.2897 43.2497 37.6868 43.1716 37.1343L43.1715 37.134L43.1715 37.1336L43.1713 37.1328L43.1712 37.1317C43.1409 36.9175 43.1116 36.7108 43.0818 36.5228C43.3634 36.5377 43.6474 36.5377 43.9289 36.5228H48.8511C49.7583 36.5857 50.6835 36.5144 51.5067 36.3181C51.652 36.2836 51.7954 36.2501 51.9368 36.2171C53.1546 35.9327 54.2251 35.6826 55.0934 35.1458C56.3926 34.2031 57.5898 33.2279 58.6801 32.2243C60.3411 30.8597 62.5407 29.6694 65.1514 28.7222C69.2781 27.2148 73.8103 25.9913 78.6206 25.0862C83.1515 24.2533 87.8585 23.6691 92.6545 23.3445C95.3254 23.2515 97.9784 23.0612 100.591 22.775C100.899 22.7048 101.157 22.5916 101.333 22.4499C100.548 23.1036 100.201 23.752 99.8329 24.4416C99.6907 24.7077 99.5453 24.98 99.37 25.2611C99.2292 25.4339 99.1392 25.6156 99.1029 25.8007C98.7195 26.7823 98.6628 27.7877 98.935 28.7781C99.1997 29.7206 99.75 30.6387 100.568 31.5023C100.812 31.7479 101.079 31.9973 101.369 32.2466C102.031 32.8026 102.814 33.3211 103.53 33.7956L103.53 33.7956L103.53 33.7959C104.185 34.2296 104.784 34.6266 105.185 34.982ZM82.5812 33.5417C84.1462 32.9292 85.3257 32.114 85.9848 31.1897C86.3932 30.5422 86.5307 29.8613 86.3892 29.1874C86.3053 28.7222 86.2442 28.5771 85.4201 28.4431C84.0286 28.246 82.5694 28.1891 81.1313 28.2756C80.6444 28.3321 80.1496 28.3707 79.6508 28.391C77.8987 28.5674 76.2195 28.8857 74.6829 29.3326C72.6134 30.0133 70.8052 30.8662 69.341 31.8521C68.5881 32.3321 67.9957 32.8672 67.5858 33.4376C67.5087 33.5029 67.474 33.5782 67.4866 33.6534C67.3187 34.0256 67.5095 34.1521 68.2039 34.327C70.8353 34.9686 73.8357 35.1549 76.7128 34.8555C77.8322 34.7403 78.9188 34.5591 79.9485 34.3159C80.8855 34.1093 81.7692 33.8494 82.5812 33.5417ZM77.7392 43.495L77.7389 43.4951C76.7757 43.724 75.8688 43.9395 75.0332 44.1296C72.7185 44.7224 70.2075 45.1117 67.6157 45.2795C67.2746 45.2795 66.915 45.3022 66.5432 45.3256L66.5426 45.3257L66.5425 45.3257C66.2406 45.3447 65.9307 45.3643 65.6163 45.3726C64.7845 46.4891 63.9679 47.6056 63.1819 48.856C62.3078 50.1834 61.6369 51.5405 61.1749 52.9163C60.8006 54.3984 60.5892 55.8892 60.5415 57.3823C71.2862 58.9794 82.8052 58.8266 93.3559 56.9469C92.2045 56.3178 91.2176 55.6215 90.4179 54.8739C89.4116 53.902 88.7756 52.8491 88.5406 51.7664C88.533 51.7007 88.533 51.6348 88.5406 51.5691C88.2733 50.2524 88.2733 48.926 88.5406 47.6093C88.7649 46.2405 89.3155 44.8891 90.1813 43.5825C91.0585 42.4553 92.1574 41.3722 93.4628 40.3484C90.6544 40.7726 87.7775 41.3123 84.9615 41.8594L84.9921 41.8705C82.4019 42.3871 79.9258 42.9755 77.7397 43.4949L77.7392 43.495ZM98.2252 17.136C99.3149 17.7895 100.181 18.5247 100.789 19.3131C101.094 19.6972 101.083 20.1238 100.759 20.504C100.438 20.8985 99.7515 21.3749 96.8745 21.7061C95.7264 21.8383 94.232 21.9491 92.5022 22.0774C89.8974 22.2706 86.7591 22.5034 83.4664 22.9082C77.7166 23.5868 72.2526 24.7479 67.3186 26.3396C63.2362 27.7466 59.6312 29.457 56.6348 31.4084C55.9371 31.8731 55.3557 32.3102 54.833 32.7032C53.7606 33.5095 52.935 34.1302 51.8577 34.4229C51.5497 34.4884 51.2403 34.5583 50.9292 34.6287L50.9285 34.6288C49.5047 34.9508 48.0436 35.2811 46.5158 35.2231C45.5139 35.2495 44.5102 35.1929 43.5472 35.0556C43.0817 34.9738 42.8222 34.2145 43.5854 33.9131C44.333 33.6742 44.928 33.3376 45.3024 32.9417C45.6764 32.5465 45.8216 32.1089 45.7221 31.6764C45.0683 29.9463 43.9039 28.2715 42.2652 26.7043C41.7983 26.2094 41.4135 25.8169 41.0905 25.4875L41.0904 25.4875L41.0904 25.4874L41.0903 25.4874L41.0903 25.4873C40.5001 24.8854 40.1164 24.494 39.8155 24.0731C39.4674 23.6459 39.3981 23.1767 39.6171 22.7296C39.84 22.282 40.3411 21.8791 41.0518 21.5759C43.7018 20.2694 46.6079 19.0927 49.7285 18.0626C52.285 17.1657 53.2237 16.8829 53.9868 16.9461C54.6702 17.0028 54.9619 17.343 55.3661 17.8143C55.4133 17.8693 55.462 17.9261 55.513 17.9845C56.0014 18.5427 56.6654 19.2275 57.9627 19.3615C59.691 19.3752 61.3814 19.1139 62.778 18.6172C63.9305 18.3458 64.863 17.8937 65.426 17.3332C65.5735 17.0629 65.2242 16.8525 64.7551 16.57C64.6171 16.4869 64.4687 16.3976 64.3195 16.2986C63.6698 15.8573 63.1556 15.3721 62.7933 14.8583C62.6025 14.4936 62.8619 14.408 66.6776 13.4366L67.3457 13.2665L67.346 13.2664C71.2901 12.2617 77.9662 10.5611 82.0088 9.7001C86.2899 8.7883 87.6636 8.83669 88.4038 8.98183C89.134 9.12501 89.2701 9.35875 89.64 9.99385L89.6553 10.0202C90.24 11.1106 91.1311 12.1564 92.3034 13.1277C93.5421 14.1449 95.3419 15.2914 96.8622 16.2598C97.3555 16.5741 97.8195 16.8697 98.2252 17.136ZM107.002 33.3863L107.002 33.3863C107.518 33.7199 107.995 34.0281 108.321 34.3117C108.384 34.3618 108.44 34.414 108.489 34.468C109.537 33.9885 110.481 33.4572 111.305 32.8826C112.043 32.3761 112.452 31.7732 112.48 31.152C112.343 30.62 111.957 30.1106 111.35 29.6633L110.175 30.0802C108.416 30.6682 106.594 31.2111 104.719 31.7065C104.912 31.9018 105.126 32.0919 105.36 32.2759V32.2387C105.863 32.6505 106.454 33.0326 107.002 33.3863ZM109.649 28.5658C107.653 29.2412 105.582 29.8624 103.445 30.4266V30.4601C102.721 29.7236 102.24 28.9362 102.018 28.1266C101.765 27.2829 101.814 26.424 102.163 25.5885C103.94 25.2291 105.67 24.8177 107.345 24.3566C110.04 23.6069 112.632 22.7728 115.106 21.8594C116.515 21.3322 117.853 20.7616 119.112 20.1512C119.553 20.8187 119.671 21.527 119.456 22.2204C119.035 23.4374 118.017 24.5867 116.487 25.5699C114.891 26.5275 113.044 27.3784 110.993 28.1006L109.649 28.5658ZM107.68 22.6816C109.886 21.9531 111.994 21.1563 113.991 20.296C115.126 19.8052 116.182 19.2727 117.15 18.7031C117.815 18.3283 118.413 17.9261 118.936 17.5011L119.172 17.3038C120.361 16.2817 121.087 15.1471 121.302 13.9767C121.532 13.0376 121.454 12.0867 121.073 11.1594C120.752 10.5602 120.348 10.4151 119.546 10.817C119.208 10.9867 118.774 11.2367 118.244 11.5427L118.244 11.5428L118.243 11.543C117.517 11.9616 116.61 12.4847 115.517 13.05C114.804 13.4262 114.039 13.7781 113.228 14.1032C111.777 14.781 110.177 15.3788 108.458 15.8859C106.317 16.4522 104.038 16.8837 101.674 17.1698C101.981 17.337 102.313 17.507 102.659 17.6846C103.277 18.0013 103.942 18.3419 104.597 18.7329C105.348 19.2081 105.712 19.8019 105.619 20.4002C105.474 20.7681 105.192 21.12 104.788 21.4386C104.178 22.0986 103.754 22.796 103.528 23.5115L103.406 23.9134C104.878 23.5515 106.3 23.1438 107.665 22.6928L107.68 22.6816ZM99.7286 49.9763C97.4186 50.1427 95.1535 50.4335 92.975 50.8435L92.9444 50.836C91.5512 51.184 91.5708 51.4364 91.5948 51.7464C91.598 51.7879 91.6013 51.8304 91.6013 51.8744C91.6573 52.3899 91.9164 52.8953 92.3644 53.363C93.1375 54.1592 94.0117 54.9311 94.982 55.6742C95.6459 56.2138 95.7298 56.2659 97.1111 55.9756C99.3495 55.5067 101.535 54.98 103.659 54.3977C105.891 53.814 107.931 53.0701 109.71 52.1907C110.895 51.6023 111.679 50.8497 111.954 50.0359C111.993 49.9401 111.993 49.8414 111.954 49.7456C111.92 49.6502 111.848 49.559 111.74 49.4776C111.629 49.3959 111.486 49.3251 111.321 49.2692C111.155 49.2139 110.968 49.1759 110.771 49.1576C109.676 49.0281 108.525 49.0751 107.49 49.2916C106.646 49.4498 105.704 49.6945 104.897 49.904C104.376 50.0394 103.912 50.1601 103.567 50.2331C102.786 50.3987 102.634 50.3079 102.416 50.1784L102.395 50.166C102.375 50.1539 102.353 50.1414 102.331 50.1289C102.056 49.9763 101.606 49.8312 99.7286 49.9763ZM79.2383 31.2233C79.0387 30.7189 78.6225 30.2407 78.0173 29.8203C76.7868 29.9363 75.6086 30.1581 74.5374 30.4753C74.2743 30.5545 74.0196 30.6402 73.7743 30.7321C72.664 31.1427 71.6753 31.6261 70.8362 32.1686C70.2252 32.5222 69.7845 32.938 69.5465 33.3856C69.4321 33.6424 69.5465 33.7243 70.0502 33.8434C70.5996 33.9775 71.1781 34.0811 71.7749 34.1523H71.8436L72.4083 34.2118C73.5811 34.3309 74.7916 34.3309 75.9644 34.2118C76.7527 34.1281 77.5202 34.0033 78.2538 33.8397C79.2485 33.0596 79.6003 32.1248 79.2383 31.2233ZM75.4226 32.6785C75.1792 32.6765 74.9395 32.6485 74.7205 32.5966C74.4427 32.5326 74.2078 32.4315 74.0431 32.305C73.8783 32.1786 73.7904 32.0319 73.7895 31.8821C73.7918 31.7657 73.8478 31.651 73.9535 31.5466C74.0592 31.4422 74.2119 31.3508 74.4 31.2792C74.6833 31.1582 75.0462 31.0909 75.4226 31.0894C75.8537 31.0894 76.2672 31.1729 76.572 31.3215C76.8768 31.4702 77.0481 31.6718 77.0481 31.8821C77.0401 32.091 76.8632 32.2899 76.5559 32.4356C76.2486 32.5813 75.8359 32.6619 75.4074 32.6599L75.4226 32.6785ZM61.9464 17.4789C61.4701 17.778 60.8485 18.0147 60.1378 18.1674L60.1226 18.1562C59.5015 18.2591 58.8365 18.2822 58.1919 18.2232C58.0351 18.2116 57.8919 18.1734 57.7874 18.1153C57.3918 17.8492 57.0805 17.5557 56.864 17.2444C55.7394 16.026 54.7585 14.7772 53.926 13.5042C53.5955 12.9682 53.323 12.424 53.1094 11.8741C52.8196 11.1377 52.6562 10.3908 52.621 9.64111C52.55 8.70735 52.8081 7.77454 53.3842 6.88337C53.7019 6.3458 54.2193 5.84123 54.9104 5.39471C55.3607 5.16025 55.5362 5.21237 55.6735 5.48032C55.7663 5.66129 55.8452 5.93563 55.9571 6.32511C56.0109 6.51232 56.0724 6.72614 56.1467 6.96898C56.3756 7.71703 56.7648 8.79629 57.2914 9.91279C57.4187 10.0904 57.5107 10.2736 57.5661 10.4599C58.0695 11.4112 58.7175 12.3429 59.5044 13.2474C60.0234 13.8168 60.6186 14.4197 61.1528 14.8998C61.4377 15.1558 61.6965 15.3928 61.9246 15.6017C62.1243 15.7845 62.3005 15.9458 62.4501 16.0795C63.0988 16.6638 63.1064 16.7048 62.9461 16.8499C62.6762 17.0818 62.3396 17.2936 61.9464 17.4789Z" fill="white"/>
</g>
<defs>
<clipPath id="clip0_2309_29046">
<rect width="160" height="160" fill="white" transform="translate(0 0.511846)"/>
</clipPath>
</defs>
</svg>
