<svg width="20" height="15" viewBox="0 0 20 15" fill="none" xmlns="http://www.w3.org/2000/svg">
<path d="M13 3C13 3.79565 12.6839 4.55871 12.1213 5.12132C11.5587 5.68393 10.7956 6 10 6C9.20435 6 8.44129 5.68393 7.87868 5.12132C7.31607 4.55871 7 3.79565 7 3C7 2.20435 7.31607 1.44129 7.87868 0.87868C8.44129 0.316071 9.20435 0 10 0C10.7956 0 11.5587 0.316071 12.1213 0.87868C12.6839 1.44129 13 2.20435 13 3V3ZM18 5C18 5.53043 17.7893 6.03914 17.4142 6.41421C17.0391 6.78929 16.5304 7 16 7C15.4696 7 14.9609 6.78929 14.5858 6.41421C14.2107 6.03914 14 5.53043 14 5C14 4.46957 14.2107 3.96086 14.5858 3.58579C14.9609 3.21071 15.4696 3 16 3C16.5304 3 17.0391 3.21071 17.4142 3.58579C17.7893 3.96086 18 4.46957 18 5V5ZM14 12C14 10.9391 13.5786 9.92172 12.8284 9.17157C12.0783 8.42143 11.0609 8 10 8C8.93913 8 7.92172 8.42143 7.17157 9.17157C6.42143 9.92172 6 10.9391 6 12V15H14V12ZM6 5C6 5.53043 5.78929 6.03914 5.41421 6.41421C5.03914 6.78929 4.53043 7 4 7C3.46957 7 2.96086 6.78929 2.58579 6.41421C2.21071 6.03914 2 5.53043 2 5C2 4.46957 2.21071 3.96086 2.58579 3.58579C2.96086 3.21071 3.46957 3 4 3C4.53043 3 5.03914 3.21071 5.41421 3.58579C5.78929 3.96086 6 4.46957 6 5V5ZM16 15V12C16.0014 10.9833 15.7433 9.98303 15.25 9.094C15.6933 8.98054 16.1568 8.96984 16.6049 9.06272C17.053 9.1556 17.474 9.34959 17.8357 9.62991C18.1974 9.91023 18.4903 10.2695 18.6921 10.6802C18.8939 11.091 18.9992 11.5424 19 12V15H16ZM4.75 9.094C4.25675 9.98305 3.9986 10.9833 4 12V15H1V12C0.999808 11.542 1.10446 11.0901 1.30595 10.6789C1.50743 10.2676 1.80039 9.90793 2.16238 9.62742C2.52437 9.3469 2.94578 9.15298 3.39431 9.06052C3.84284 8.96806 4.30658 8.97951 4.75 9.094V9.094Z" fill="white"/>
</svg>
